<svg xmlns="http://www.w3.org/2000/svg" width="45" height="45" fill="none" viewBox="0 0 45 45">
  <path fill="#FF8300" d="M15.546 11.01a.75.75 0 0 0 0-1.5v1.5Zm9.258-1.5a.75.75 0 0 0 0 1.5v-1.5Zm-9.257 0a.75.75 0 0 0 0 1.5v-1.5Zm9.257 1.5a.75.75 0 0 0 0-1.5v1.5Zm-8.507-.75a.75.75 0 1 0-1.5 0h1.5Zm-1.5 1.38a.75.75 0 0 0 1.5 0h-1.5Zm0-1.38a.75.75 0 0 0 1.5 0h-1.5Zm1.5-2.76a.75.75 0 0 0-1.5 0h1.5Zm9.257 2.76a.75.75 0 1 0-1.5 0h1.5Zm-1.5 1.38a.75.75 0 0 0 1.5 0h-1.5Zm0-1.38a.75.75 0 0 0 1.5 0h-1.5Zm1.5-2.76a.75.75 0 0 0-1.5 0h1.5ZM15.547 9.51c-3.742 0-6.922 2.73-6.922 6.27h1.5c0-2.558 2.347-4.77 5.421-4.77v-1.5Zm-6.922 6.27v8.28h1.5v-8.28h-1.5Zm0 8.28c0 3.54 3.18 6.27 6.921 6.27v-1.5c-3.074 0-5.42-2.211-5.42-4.77h-1.5Zm6.921 6.27h9.258v-1.5h-9.257v1.5Zm9.258 0c3.741 0 6.921-2.73 6.921-6.27h-1.5c0 2.559-2.346 4.77-5.421 4.77v1.5Zm6.921-6.27v-8.28h-1.5v8.28h1.5Zm0-8.28c0-3.54-3.18-6.27-6.921-6.27v1.5c3.075 0 5.421 2.212 5.421 4.77h1.5Zm-16.179-4.77h9.258v-1.5h-9.257v1.5Zm-.75-.75v1.38h1.5v-1.38h-1.5Zm1.5 0V7.5h-1.5v2.76h1.5Zm7.758 0v1.38h1.5v-1.38h-1.5Zm1.5 0V7.5h-1.5v2.76h1.5Z"/>
  <path stroke="#FF8300" stroke-linecap="round" stroke-linejoin="round" stroke-width="1.5" d="m14.003 19.92 3.086 4.14 9.257-6.9"/>
</svg>
