<svg xmlns="http://www.w3.org/2000/svg" width="116" height="45" fill="none" viewBox="0 0 116 45">
  <path fill="#FF8300" d="M44.68 31.63c0 2.08-.523 3.713-1.57 4.9-1.167 1.327-2.873 1.99-5.12 1.99H37v-3.28h.99c1.227 0 2.1-.277 2.62-.83.527-.553.79-1.48.79-2.78v-5.39h3.28v5.39Zm7.65-1.75v-1.03c0-.613-.13-1.1-.39-1.46a1.247 1.247 0 0 0-1.06-.53c-.453 0-.813.177-1.08.53-.246.327-.37.75-.37 1.27 0 .06.004.123.01.19.02.353.18.62.48.8.254.153.574.23.96.23h1.45Zm-1.45-6.3c1.474 0 2.647.537 3.52 1.61.807.98 1.21 2.2 1.21 3.66v1.03h.99v3.27h-1.02c-.166 2.073-1.18 3.557-3.04 4.45-.726.347-1.576.597-2.55.75a15.25 15.25 0 0 1-2.49.19v-3.28c1.667 0 2.92-.233 3.76-.7.68-.373 1.02-.843 1.02-1.41h-1.4c-1.186 0-2.196-.32-3.03-.96-1-.773-1.5-1.887-1.5-3.34 0-1.38.334-2.55 1-3.51.807-1.173 1.984-1.76 3.53-1.76Zm13.907 4.49c.054.32.08.627.08.92 0 .907-.26 1.72-.78 2.44-.833 1.147-2.19 1.72-4.07 1.72h-3.91v-3.28h3.84c.6 0 1.024-.08 1.27-.24.254-.153.38-.397.38-.73 0-.1-.013-.21-.04-.33a154.896 154.896 0 0 1-.28-1.47l-.04-.19-.03-.19a30.91 30.91 0 0 0-.23-1.17l3.13-.95c.2.94.427 2.097.68 3.47Zm-2.06-4.99-1.96-1.98 1.94-2 2 2-1.98 1.98Zm-4.19.01-1.96-1.98 1.93-2 2 2-1.97 1.98Zm29.251 9.38c0 1.76-.433 3.143-1.3 4.15-.546.627-1.257 1.103-2.13 1.43-.833.307-1.817.46-2.95.46h-1.51c-1.147 0-2.18-.21-3.1-.63-1.047-.48-1.863-1.177-2.45-2.09-.633-1.013-.95-2.19-.95-3.53 0-.167.004-.333.01-.5.08-1.553.557-3.277 1.43-5.17l2.98 1.37c-.7 1.507-1.08 2.83-1.14 3.97-.007.113-.01.227-.01.34 0 .713.15 1.297.45 1.75.294.467.747.8 1.36 1 .234.08.487.137.76.17.213.027.433.04.66.04h1.51c1.247 0 2.093-.23 2.54-.69.38-.393.57-1.083.57-2.07v-6.23h3.27v6.23Zm-8.8-7.02 2.08-2.1 2.12 2.12-2.11 2.1-2.09-2.12Zm13.575 7.7h-3.28V18.73h3.28v14.42Zm7.482-6.92v2.73c0 .287.147.517.44.69.234.147.47.22.71.22h.46v3.28h-.46c-.386 0-.796-.063-1.23-.19-.193 1.473-.69 2.66-1.49 3.56-1.166 1.327-2.873 1.99-5.12 1.99h-.99v-3.28h.99c1.227 0 2.1-.277 2.62-.83.527-.553.79-1.48.79-2.78v-5.39h3.28Zm9.795 1.84c.053.32.08.627.08.92 0 .907-.26 1.72-.78 2.44-.833 1.147-2.19 1.72-4.07 1.72h-3.91v-3.28H105c.6 0 1.023-.08 1.27-.24.253-.153.38-.397.38-.73 0-.1-.013-.21-.04-.33a148.84 148.84 0 0 1-.28-1.47l-.04-.19-.03-.19c-.1-.547-.177-.937-.23-1.17l3.13-.95c.2.94.427 2.097.68 3.47Zm-2.33 10.8-1.96-1.98 1.94-2 2 2-1.98 1.98Zm-4.22.01-1.96-1.98 1.93-2 2 2-1.97 1.98Zm11.66-5.73h-3.28V18.73h3.28v14.42Z"/>
  <path fill="#90BDE6" d="M44.953 8.98c.602 1.323-4.66 5.007-11.758 8.225-.455.2-.962.432-1.51.672L24.9 41.336l-1.91.86.805-21.056c-5.395 2.146-11.387 4.356-15.06 5.405l-1.082 8.833-.536.254-.717-8.534c-.661.103-1.063.095-1.136-.078-.078-.17.173-.48.684-.905L0 19.967l.547-.25 7.359 5c3.21-2.076 8.816-5.135 13.987-7.803L5.493 3.675l1.894-.87L29.52 13.116c.544-.256 1.05-.488 1.501-.695 7.097-3.226 13.334-4.76 13.932-3.44Z"/>
</svg>
