<svg width="1200" height="262" viewBox="0 0 1200 262" fill="none" xmlns="http://www.w3.org/2000/svg">
<path d="M1048 2C1047.15 24.0329 1039.9 36.6537 1028.2 53.3623C1014.89 72.3687 1001.38 93.7292 984.547 109.347C964.621 127.84 928.824 126.019 904.634 124.114C884.8 122.552 850.924 102.237 883.88 89.0591C906.667 79.9473 914.594 107.095 911.313 127.067C904.434 168.937 869.569 184.731 833.666 189.729C782.963 196.788 729.179 191.527 678.014 191.527C631.007 191.527 583.636 189.586 536.675 191.784C510.843 192.993 485.613 198.639 461.652 209.118C446.727 215.646 440.735 224.495 433.981 239.037C430.787 245.914 429.948 254.107 437.798 257.527C452.728 264.033 465.631 257.555 463.799 239.807C459.792 200.977 414.351 199.345 386.63 198.589C349.042 197.565 318.15 208.512 282.265 217.978C247.317 227.198 208.9 238.765 172.534 231.718C159.981 229.285 152.04 219.534 142 212.329" stroke="#878383" stroke-opacity="0.3" stroke-width="3" stroke-linecap="round" stroke-dasharray="6 6"/>
<path d="M17.0771 64.5343L17.1436 64.8564L17.4657 64.9229L27.527 67L17.4657 69.0771L17.1436 69.1436L17.0771 69.4657L15 79.527L12.9229 69.4657L12.8564 69.1436L12.5343 69.0771L2.473 67L12.5343 64.9229L12.8564 64.8564L12.9229 64.5343L15 54.473L17.0771 64.5343Z" stroke="#878383"/>
<path d="M1185 141L1187.46 153.539L1200 156L1187.46 158.461L1185 171L1182.54 158.461L1170 156L1182.54 153.539L1185 141Z" fill="#D9D9D9"/>
</svg>
