<svg xmlns="http://www.w3.org/2000/svg" width="45" height="45" fill="none" viewBox="0 0 45 45">
  <path fill="#FF8300" d="M31.55 17.621a.75.75 0 0 0 0-1.5v1.5Zm.09 4.361a.75.75 0 1 0 0-1.5v1.5Zm.646-5.25a.75.75 0 1 0-1.474.278l1.474-.278Zm-.62 1.39h.75-.75Zm-.774 3.037a.75.75 0 1 0 1.494.136l-1.494-.137Zm-.08-4.15a.75.75 0 1 0 1.475-.275l-1.475.274Zm-5.12-6.84a.75.75 0 1 0-.37 1.453l.37-1.454Zm6.695 11.126a.75.75 0 0 0-1.495-.125l1.495.125Zm-9.155 6.83v.75h.005l-.005-.75Zm-5.623 0-.005.75h.005v-.75Zm-8.434-7.502.75.007v-.007h-.75Zm0-2.501h.75v-.001h-.75Zm1.222-2.333a.75.75 0 0 0-1.383-.58l1.383.58Zm14.93-4.166a.75.75 0 1 0 .364-1.455l-.365 1.455Zm-2.095-1.01.001-.75v.75Zm-5.622 0v-.75h-.004l.003.75Zm-8.598 4.601a.75.75 0 0 0 1.387.571l-1.387-.571Zm15.862-3.919a.75.75 0 1 0 1.269-.8l-1.269.8Zm-.683-2.488-.642.387.008.014.634-.4Zm-4.185-2.96-.179.728.179-.728Zm-5.333.625-.348-.664-.003.001.35.663ZM12.66 7.536l-.35-.663-.01.005.36.658Zm-3.637 8.277a.75.75 0 0 0 1.363-.626l-1.363.626Zm22.525.308h-3.036v1.5h3.036v-1.5Zm-3.036 0c-1.693 0-3.24 1.222-3.24 2.93h1.5c0-.699.682-1.43 1.74-1.43v-1.5Zm-3.24 2.93c0 1.71 1.547 2.931 3.24 2.931v-1.5c-1.058 0-1.74-.73-1.74-1.43h-1.5Zm3.24 2.931h3.126v-1.5h-3.126v1.5Zm2.3-4.972c.069.368.104.74.104 1.112h1.5c0-.466-.044-.93-.13-1.39l-1.475.278Zm.104 1.112v2.501h1.5v-2.501h-1.5Zm0 2.501c0 .18-.009.359-.025.535l1.494.137c.02-.223.03-.447.03-.672h-1.5Zm1.37-3.889c-.59-3.177-3.195-5.701-6.595-6.566l-.37 1.454c2.924.744 5.023 2.87 5.49 5.386l1.475-.274Zm-1.395 4.436c-.284 3.4-3.543 6.18-7.665 6.206l.01 1.5c4.73-.03 8.789-3.25 9.15-7.581l-1.495-.125Zm-7.66 6.206H17.61v1.5h5.623v-1.5Zm-5.617 0c-4.377-.03-7.722-3.14-7.69-6.746l-1.5-.014c-.04 4.617 4.167 8.225 9.18 8.26l.01-1.5Zm-7.69-6.753v-2.501h-1.5v2.501h1.5Zm0-2.502c0-.793.158-1.582.472-2.332l-1.383-.58a7.51 7.51 0 0 0-.589 2.914l1.5-.002Zm15.766-7.953c-.8-.2-1.627-.303-2.458-.304l-.002 1.5a8.6 8.6 0 0 1 2.095.259l.365-1.455Zm-2.459-.304H17.61v1.5h5.622v-1.5Zm-5.626 0c-3.8.015-7.26 2.109-8.594 5.35l1.387.571c1.07-2.598 3.924-4.408 7.214-4.421l-.007-1.5Zm8.537.63-1.317-2.087-1.269.8 1.317 2.088 1.269-.8Zm-1.309-2.073c-.985-1.637-2.676-2.819-4.65-3.303l-.357 1.457c1.627.4 2.964 1.36 3.722 2.62l1.285-.774Zm-4.65-3.303c-1.973-.484-4.09-.238-5.86.69l.697 1.328c1.438-.754 3.179-.96 4.806-.561l.357-1.457Zm-5.862.691L12.31 6.873l.7 1.326 2.012-1.064-.7-1.326ZM12.3 6.88c-3.357 1.842-4.807 5.6-3.276 8.933l1.363-.625c-1.162-2.53-.12-5.48 2.635-6.994L12.3 6.878Z"/>
</svg>
