<svg xmlns="http://www.w3.org/2000/svg" width="24" height="24" fill="none" viewBox="0 0 24 24">
  <path stroke="#000" stroke-linecap="round" stroke-linejoin="round" d="m9.085 17.982-1.767.9a.22.22 0 0 1-.318-.2V5.955A.936.936 0 0 1 7.916 5h9.167c.517.01.927.438.916.955v12.727a.22.22 0 0 1-.318.2l-1.767-.9a.216.216 0 0 0-.22.014l-1.422.966a.217.217 0 0 1-.244 0l-1.406-.955a.217.217 0 0 0-.244 0l-1.406.955a.217.217 0 0 1-.244 0L9.305 18a.216.216 0 0 0-.22-.018Z" clip-rule="evenodd"/>
  <path fill="#000" d="M9.999 13.5a.5.5 0 0 0 0 1v-1Zm4.914 1a.5.5 0 1 0 0-1v1Zm-4.06-4.354a.5.5 0 0 0-.707.708l.707-.708Zm.646 1.354-.354.354a.5.5 0 0 0 .708 0l-.354-.354Zm3.354-2.646a.5.5 0 0 0-.707-.708l.707.708ZM9.999 14.5h4.914v-1H9.999v1Zm.146-3.646 1 1 .708-.708-1-1-.707.708Zm1.708 1 3-3-.707-.708-3 3 .707.708Z"/>
</svg>
